<?xml version="1.0" encoding="UTF-8"?>
<svg id="logos" xmlns="http://www.w3.org/2000/svg" xmlns:xlink="http://www.w3.org/1999/xlink" viewBox="0 0 445 215">
  <defs>
    <style>
      .cls-1 {
        clip-path: url(#clippath);
      }

      .cls-2, .cls-3 {
        fill: #0034b7;
      }

      .cls-4, .cls-3 {
        stroke-width: 0px;
      }
    </style>
    <clipPath id="clippath">
      <polygon class="cls-3" points="338.85 111.93 337.36 111.93 349.69 51.25 351.17 51.25 338.85 111.93"/>
    </clipPath>
  </defs>
  <g>
    <g>
      <path class="cls-3" d="M91.31,100.54h-6.53v-40.54h6.54v15.25c1.24-2.19,2.49-3.63,3.73-4.32,1.24-.69,2.69-1.04,4.36-1.04,3.17,0,5.8,1.37,7.88,4.09,2.08,2.73,3.12,6.51,3.12,11.34,0,4.37-1.03,8.1-3.08,11.2-2.05,3.09-5,4.64-8.84,4.64-1.28,0-2.83-.21-4.32-.9-1.69-.79-2.86-2.09-2.86-2.09v2.38ZM91.32,88.04c0,2.61.56,4.54,1.68,5.78,1.12,1.25,2.57,1.87,4.34,1.87s3.17-.72,4.33-2.14c1.17-1.43,1.79-4.24,1.86-8.41,0-3.06-.52-5.41-1.58-7.06-1.05-1.65-2.53-2.48-4.44-2.48-1.8,0-3.28.71-4.44,2.11-1.17,1.41-1.75,3.4-1.75,5.97v4.35Z"/>
      <path class="cls-3" d="M156.95,82.7h-6.19c-.5-2.97-1.71-5.48-3.65-7.54-2.61-2.76-5.94-4.14-9.99-4.14-4.28,0-7.71,1.42-10.32,4.26-2.6,2.84-3.91,6.39-3.91,10.66,0,3.96,1.18,7.48,3.53,10.55,2.36,3.07,5.77,4.6,10.25,4.6,4.15,0,7.58-1.38,10.29-4.16,2.26-2.31,3.56-5.25,3.93-8.8h6.06v-5.43ZM136.9,95.72c-2.1,0-3.75-.83-4.96-2.49-1.21-1.66-1.81-4.06-1.81-7.21,0-2.91.57-5.25,1.71-7.02,1.14-1.76,2.89-2.64,5.24-2.64s3.96.85,5.06,2.56c.66,1.03,1.1,2.3,1.36,3.78h-6.14l-.89,5.43h7.21c-.49,5.06-2.75,7.59-6.79,7.59Z"/>
      <path class="cls-3" d="M172.34,95.32v5.16c-1.95.42-3.46.64-4.53.64-1.76,0-3.27-.35-4.53-1.06-1.26-.7-2.18-1.67-2.77-2.9-.58-1.23-.88-3.12-.88-5.67v-15.17h-4.49v-5.13h4.87l.6-7.63,5.36-.49v8.12h5.82v5.13h-5.82v14.3c0,1.84.33,3.09.99,3.76.66.67,1.91,1,3.74,1,.51,0,1.06-.02,1.63-.06Z"/>
      <path class="cls-3" d="M220.11,89.72l5.62.58c-.73,3.67-2.13,6.39-4.21,8.15-2.08,1.76-4.6,2.64-7.54,2.64-3.99,0-7.07-1.48-9.22-4.42-2.15-2.95-3.22-6.56-3.22-10.83s1.17-8.05,3.52-10.93c2.35-2.88,5.49-4.32,9.4-4.32,6.31,0,10.06,3.37,11.27,10.09l-5.62.78c-.5-3.63-2.27-5.45-5.3-5.45-2.22,0-3.83.98-4.83,2.94-1,1.96-1.51,4.34-1.51,7.12,0,2.96.52,5.24,1.56,6.84,1.04,1.61,2.5,2.41,4.37,2.41,2.87,0,4.77-1.87,5.71-5.6Z"/>
      <path class="cls-3" d="M252.29,100.54h-6.54v-19.17c0-2.07-.43-3.53-1.3-4.37-.87-.84-1.89-1.26-3.05-1.26-1.85,0-3.41.75-4.67,2.24-1.26,1.49-1.89,3.94-1.89,7.37v15.2h-6.54v-39.59h6.54v15.43c1.62-4.22,4.47-6.32,8.54-6.32,5.95,0,8.92,3.45,8.92,10.35v20.13Z"/>
      <path class="cls-3" d="M279.75,100.54h-6.54v-18.3c0-1.93-.44-3.39-1.32-4.36-.88-.98-1.94-1.46-3.18-1.46-1.7,0-3.19.75-4.47,2.26-1.28,1.51-1.92,3.78-1.92,6.81v15.05h-6.54v-29.29h5.97v6.79c2.08-4.93,5-7.4,8.77-7.4,2.54,0,4.71.81,6.52,2.44,1.81,1.63,2.71,4.47,2.71,8.56v18.91Z"/>
      <path class="cls-3" d="M308.87,85.89c0-4.48-1.13-8.16-3.38-11.02-2.25-2.86-5.45-4.29-9.58-4.29s-7.57,1.45-10.03,4.35c-2.47,2.9-3.7,6.57-3.7,10.99,0,4.66,1.22,8.35,3.67,11.08,2.45,2.73,5.68,4.09,9.69,4.09,3.35,0,6.13-.86,8.34-2.58,2.22-1.72,3.71-3.91,4.47-6.56l-5.91-.81c-1.13,3.17-3.3,4.76-6.54,4.76-1.66,0-3.05-.44-4.16-1.33-1.11-.89-1.85-1.93-2.22-3.13-.37-1.2-.56-2.79-.56-4.79h19.87l.03-.75ZM288.97,82.38c.21-2.28.92-4.05,2.12-5.29,1.2-1.25,2.7-1.87,4.5-1.87s3.34.67,4.57,2c1.23,1.33,1.86,3.05,1.88,5.16h-13.07Z"/>
      <g>
        <path class="cls-3" d="M120.01,100.54h-6.54v-26.41h6.54v26.41Z"/>
        <path class="cls-3" d="M120.16,68c0,1.91-1.53,3.45-3.41,3.45s-3.41-1.55-3.41-3.45,1.53-3.45,3.41-3.45,3.41,1.55,3.41,3.45Z"/>
      </g>
      <path class="cls-3" d="M311.37,70.58c1.9,0,3.41,1.52,3.41,3.42s-1.51,3.44-3.42,3.44-3.44-1.5-3.44-3.44,1.54-3.42,3.44-3.42h.01ZM311.36,71.11c-1.59,0-2.89,1.29-2.89,2.89s1.3,2.91,2.9,2.91c1.61.01,2.89-1.28,2.89-2.89s-1.29-2.91-2.89-2.91h-.02ZM310.72,75.99h-.61v-3.82c.32-.05.62-.09,1.08-.09.58,0,.96.12,1.19.29.23.17.35.43.35.79,0,.5-.34.8-.75.93v.03c.33.06.56.36.64.93.09.59.18.82.24.94h-.64c-.09-.12-.18-.47-.26-.97-.09-.49-.34-.67-.82-.67h-.43v1.64ZM310.72,73.88h.44c.5,0,.93-.18.93-.65,0-.34-.24-.67-.93-.67-.2,0-.33.01-.44.03v1.29Z"/>
    </g>
    <path class="cls-3" d="M199.6,85.89c0-4.48-1.13-8.16-3.38-11.02-2.25-2.86-5.45-4.29-9.57-4.29s-7.57,1.45-10.04,4.35c-2.47,2.9-3.7,6.57-3.7,10.99,0,4.66,1.22,8.35,3.67,11.08,2.45,2.73,5.68,4.09,9.69,4.09,3.34,0,6.12-.86,8.34-2.58,2.22-1.72,3.71-3.91,4.47-6.56l-5.91-.81c-1.13,3.17-3.31,4.76-6.54,4.76-1.66,0-3.05-.44-4.16-1.33-1.11-.89-1.85-1.93-2.22-3.13-.37-1.2-.56-2.79-.56-4.79h19.87l.03-.75ZM179.7,82.38c.21-2.28.92-4.05,2.12-5.29,1.2-1.25,2.7-1.87,4.5-1.87s3.34.67,4.57,2c1.23,1.33,1.86,3.05,1.88,5.16h-13.07Z"/>
  </g>
  <g>
    <polygon class="cls-2" points="338.85 111.93 337.36 111.93 349.69 51.25 351.17 51.25 338.85 111.93"/>
    <g class="cls-1">
      <rect class="cls-4" x="335.94" y="51.29" width=".44" height="60.59"/>
    </g>
  </g>
  <g>
    <g>
      <path class="cls-3" d="M92.12,123.65c-.98-1.33-2.41-2-4.22-2-.66,0-1.31.1-1.95.29-.6.18-1.32.47-2.15.87-.04-.25-.08-.53-.13-.83l-.02-.12h-2.24v.15c.07.79.11,1.47.13,2.06v18.01h2.34v-6.64c.36.24.81.46,1.34.64.66.23,1.48.34,2.46.34,1.77,0,3.22-.73,4.29-2.16,1.07-1.43,1.61-3.2,1.61-5.31,0-2.22-.48-4-1.46-5.33ZM91.14,128.91c0,1.63-.32,2.95-.94,3.97-.62,1.01-1.52,1.5-2.77,1.51-.83,0-1.55-.11-2.17-.32-.59-.2-1.05-.46-1.39-.76v-8.69c.62-.34,1.21-.58,1.75-.71.57-.14,1.17-.22,1.8-.22,1.16,0,2.05.44,2.71,1.33.66.89,1,2.18,1,3.89Z"/>
      <path class="cls-3" d="M103.9,121.74c-.07-.02-.17-.04-.3-.06-.13-.02-.26-.03-.38-.03-.99,0-1.95.24-2.87.72-.8.42-1.52.97-2.14,1.65,0-.44-.02-.81-.04-1.11-.03-.38-.08-.69-.14-.93l-.03-.11h-2.22l.03.17c.03.14.06.8.08,1.91v12.25h2.34v-9.95c.2-.46.67-.95,1.41-1.45.73-.5,1.66-.75,2.79-.75.39,0,.71.03.95.1l.15.04.5-2.42-.13-.04Z"/>
      <path class="cls-3" d="M115.57,123.8c-1.14-1.43-2.78-2.15-4.85-2.15-2.03,0-3.69.69-4.92,2.06-1.23,1.37-1.85,3.09-1.84,5.13,0,2.27.57,4.11,1.72,5.5,1.16,1.4,2.87,2.09,5.11,2.09h0c1.92,0,3.5-.73,4.7-2.17,1.19-1.43,1.79-3.16,1.79-5.17,0-2.11-.57-3.88-1.7-5.3ZM108.81,134.02c-.53-.32-1.08-.87-1.62-1.66-.53-.76-.8-1.85-.8-3.28,0-1.66.38-2.99,1.12-4,.74-1,1.78-1.5,3.16-1.5,1.38,0,2.39.52,3.1,1.57.72,1.07,1.07,2.24,1.07,3.54,0,1.5-.26,2.68-.78,3.53-.53.87-1.05,1.47-1.56,1.79-.51.32-1.11.49-1.81.49h0c-.72,0-1.35-.16-1.89-.48Z"/>
      <path class="cls-3" d="M125.55,134.06l-.17.05c-.14.04-.44.11-.9.2-.45.09-.83.13-1.12.13-.52,0-.87-.21-1.12-.66-.25-.46-.38-1.08-.38-1.87v-7.97h3.18l.26-2.07h-3.44v-3.55h-2.34v14.12c0,1.49.3,2.54.96,3.13.64.58,1.54.86,2.66.86.33,0,.77-.04,1.34-.11.56-.07.93-.13,1.11-.16l.13-.03-.18-2.08Z"/>
      <path class="cls-3" d="M138.36,133.44l-1.59-1.29-.09.11c-.55.73-1.16,1.27-1.8,1.63-.64.36-1.4.54-2.27.54-1.19,0-2.1-.52-2.79-1.61-.67-1.06-1.02-2.31-1.04-3.78h9.41v-.14c.01-.23.02-.45.02-.67,0-.44-.02-.87-.05-1.28-.12-1.65-.68-2.97-1.67-3.9-.99-.94-2.34-1.41-4.02-1.4-1.99,0-3.53.67-4.57,2.01-1.04,1.33-1.55,3.06-1.55,5.15,0,2.4.56,4.28,1.71,5.61,1.14,1.34,2.67,2.01,4.54,2.01,1.44,0,2.61-.26,3.52-.78.89-.52,1.66-1.19,2.28-2.02l.08-.11-.11-.09ZM128.79,127.36c.07-.97.39-1.84.96-2.62.6-.8,1.47-1.2,2.66-1.2,1.25,0,2.08.39,2.57,1.15.48.75.75,1.63.8,2.67h-7Z"/>
      <path class="cls-3" d="M156.68,122.85c-.81-.8-1.9-1.2-3.26-1.2-.87,0-1.75.15-2.63.45-.78.27-1.45.57-2.02.92-.03-.37-.08-.71-.14-1.03l-.02-.11h-2.26l.02.16c.08.64.11,1.23.11,1.79v12.38h2.34v-11.35c.57-.35,1.23-.65,1.98-.88.78-.24,1.56-.36,2.35-.36.78,0,1.35.26,1.76.78.42.53.63,1.2.63,2.01v9.79h2.34v-9.96c0-1.45-.4-2.59-1.2-3.39Z"/>
      <g>
        <path class="cls-3" d="M143.92,119.4c0,.99-.8,1.78-1.78,1.78s-1.78-.8-1.78-1.78.8-1.78,1.78-1.78,1.78.8,1.78,1.78Z"/>
        <path class="cls-3" d="M142.14,123.02c-.41,0-.79-.07-1.17-.18v13.36h2.34v-13.36c-.37.11-.76.18-1.17.18Z"/>
      </g>
      <g>
        <path class="cls-3" d="M172.54,129.87c-.56-.62-1.47-1.15-2.71-1.6-.39-.12-.78-.25-1.16-.38-.38-.13-.77-.26-1.16-.38-.73-.22-1.35-.5-1.87-.85-.51-.34-.74-.77-.74-1.33,0-.59.25-1.01.79-1.32.55-.31,1.26-.48,2.12-.48.7,0,1.32.11,1.86.34.54.23,1.11.59,1.69,1.09l.11.09,1.36-1.63-.1-.09c-.34-.32-.69-.59-1.05-.8-.36-.21-.74-.39-1.15-.52-.4-.13-.83-.23-1.29-.29-.46-.06-.94-.09-1.47-.09-1.5,0-2.73.34-3.69,1.03-.96.69-1.45,1.63-1.45,2.76,0,1.18.45,2.12,1.34,2.77.87.64,1.81,1.08,2.81,1.35,1.03.35,1.73.59,2.08.71.93.33,1.55.68,1.83.99.29.33.43.71.43,1.16,0,.66-.28,1.15-.86,1.54-.59.38-1.34.58-2.28.58s-1.69-.17-2.28-.51c-.61-.35-1.21-.84-1.79-1.47l-.11-.11-.1.11-1.46,1.58.09.1c.84.86,1.71,1.45,2.61,1.75.9.3,1.92.44,3.08.44h0c1.49,0,2.75-.37,3.77-1.11,1.03-.74,1.56-1.76,1.55-3.02,0-1-.28-1.82-.84-2.45Z"/>
        <path class="cls-3" d="M199.65,124.36c-.16-.54-.4-1.01-.74-1.41-.33-.4-.75-.72-1.26-.95-.51-.23-1.11-.35-1.78-.35-1.56,0-3.19.48-4.9,1.43-.4-.5-.86-.86-1.4-1.08-.56-.23-1.21-.35-1.93-.35-.43,0-.85.04-1.26.13-.41.08-.81.19-1.19.31-.38.12-.73.26-1.06.42-.25.12-.48.23-.69.34-.03-.34-.08-.63-.14-.88l-.03-.1h-2.19l.02.16c.06.49.1,1.03.1,1.62v12.55h2.34v-11.6c.53-.27,1.09-.49,1.7-.69.63-.2,1.26-.3,1.91-.3.79,0,1.36.22,1.76.64.4.42.61,1.1.61,2.05v9.89h2.34v-10.08c0-.58-.05-1.12-.15-1.62,1.15-.6,2.32-.9,3.52-.9.33,0,.64.05.93.16.28.11.53.27.74.49.21.22.38.49.5.83.12.33.18.73.18,1.19v9.92h2.34v-10.12c0-.61-.08-1.19-.24-1.72Z"/>
        <path class="cls-3" d="M213.25,123.65c-.98-1.33-2.41-2-4.21-2-.66,0-1.31.1-1.96.29-.6.18-1.32.47-2.15.87-.04-.25-.08-.53-.13-.83l-.02-.12h-2.24v.15c.08.79.11,1.47.13,2.06v18.01h2.34v-6.64c.36.25.81.46,1.34.64.66.23,1.48.34,2.46.34,1.77,0,3.22-.73,4.29-2.16,1.07-1.43,1.61-3.2,1.61-5.31,0-2.22-.48-4-1.47-5.33ZM212.27,128.91c0,1.63-.32,2.95-.94,3.97-.62,1.01-1.52,1.5-2.77,1.51-.83,0-1.55-.11-2.17-.32-.59-.2-1.05-.46-1.39-.76v-8.69c.62-.34,1.21-.58,1.75-.71.57-.14,1.17-.22,1.8-.22,1.16,0,2.04.44,2.71,1.33.66.89,1,2.18,1,3.89Z"/>
        <path class="cls-3" d="M233.25,133.44l-1.6-1.29-.09.11c-.56.73-1.16,1.27-1.8,1.63-.64.36-1.4.54-2.27.54-1.19,0-2.1-.52-2.8-1.61-.67-1.06-1.02-2.31-1.04-3.78h9.41v-.14c.01-.23.02-.45.02-.67,0-.44-.02-.87-.05-1.28-.12-1.65-.68-2.97-1.67-3.9-.99-.94-2.34-1.41-4.03-1.4-1.99,0-3.53.67-4.57,2.01-1.04,1.33-1.55,3.06-1.55,5.15,0,2.4.56,4.28,1.71,5.61,1.14,1.34,2.67,2.01,4.54,2.01,1.44,0,2.61-.26,3.52-.78.9-.52,1.66-1.19,2.29-2.02l.08-.11-.11-.09ZM227.31,123.55c1.25,0,2.08.39,2.57,1.15.48.75.75,1.63.8,2.67h-7c.07-.97.39-1.84.97-2.62.6-.8,1.46-1.2,2.66-1.2Z"/>
        <rect class="cls-3" x="216.47" y="118.32" width="2.34" height="18.13"/>
        <g>
          <path class="cls-3" d="M178.46,119.4c0,.99-.8,1.78-1.78,1.78s-1.78-.8-1.78-1.78.8-1.78,1.78-1.78,1.78.8,1.78,1.78Z"/>
          <path class="cls-3" d="M176.68,123.02c-.34,0-.67-.05-.98-.12v13.3h2.34v-13.42c-.43.14-.88.24-1.35.24Z"/>
        </g>
      </g>
    </g>
    <g>
      <polygon class="cls-3" points="234.16 122.03 233.16 122.03 233.16 122.22 233.56 122.22 233.56 123.24 233.75 123.24 233.75 122.22 234.16 122.22 234.16 122.03"/>
      <polygon class="cls-3" points="235.29 122.03 235.18 122.03 234.88 122.99 234.58 122.03 234.47 122.03 234.29 122.03 234.29 123.24 234.47 123.24 234.47 122.22 234.79 123.24 234.98 123.24 235.29 122.24 235.29 123.24 235.48 123.24 235.48 122.03 235.29 122.03"/>
    </g>
  </g>
</svg>