<?xml version="1.0" encoding="UTF-8"?>
<svg id="logos" xmlns="http://www.w3.org/2000/svg" xmlns:xlink="http://www.w3.org/1999/xlink" viewBox="0 0 590 215">
  <defs>
    <style>
      .cls-1 {
        clip-path: url(#clippath);
      }

      .cls-2 {
        stroke-width: 0px;
      }
    </style>
    <clipPath id="clippath">
      <polygon class="cls-2" points="318.9 131.93 317.42 131.93 329.74 71.25 331.23 71.25 318.9 131.93"/>
    </clipPath>
  </defs>
  <g>
    <g>
      <path class="cls-2" d="M71.37,120.54h-6.53v-40.54h6.54v15.25c1.24-2.19,2.49-3.63,3.73-4.32,1.24-.69,2.69-1.04,4.36-1.04,3.17,0,5.8,1.37,7.88,4.09,2.08,2.73,3.12,6.51,3.12,11.34,0,4.37-1.03,8.1-3.08,11.2-2.05,3.09-5,4.64-8.84,4.64-1.28,0-2.83-.21-4.32-.9-1.69-.79-2.86-2.09-2.86-2.09v2.38ZM71.38,108.04c0,2.61.56,4.54,1.68,5.78,1.12,1.25,2.57,1.87,4.34,1.87s3.17-.72,4.33-2.14c1.17-1.43,1.79-4.24,1.86-8.41,0-3.06-.52-5.41-1.58-7.06-1.05-1.65-2.53-2.48-4.44-2.48-1.8,0-3.28.71-4.44,2.11-1.17,1.41-1.75,3.4-1.75,5.97v4.35Z"/>
      <path class="cls-2" d="M137,102.7h-6.19c-.5-2.97-1.71-5.48-3.65-7.54-2.61-2.76-5.94-4.14-9.99-4.14-4.28,0-7.71,1.42-10.32,4.26-2.6,2.84-3.91,6.39-3.91,10.66,0,3.96,1.18,7.48,3.53,10.55,2.36,3.07,5.77,4.6,10.25,4.6,4.15,0,7.58-1.38,10.29-4.16,2.26-2.31,3.56-5.25,3.93-8.8h6.06v-5.43ZM116.96,115.72c-2.1,0-3.75-.83-4.96-2.49-1.21-1.66-1.81-4.06-1.81-7.21,0-2.91.57-5.25,1.71-7.02,1.14-1.76,2.89-2.64,5.24-2.64s3.96.85,5.06,2.56c.66,1.03,1.1,2.3,1.36,3.78h-6.14l-.89,5.43h7.21c-.49,5.06-2.75,7.59-6.79,7.59Z"/>
      <path class="cls-2" d="M152.39,115.32v5.16c-1.95.42-3.46.64-4.53.64-1.76,0-3.27-.35-4.53-1.06-1.26-.7-2.18-1.67-2.77-2.9-.58-1.23-.88-3.12-.88-5.67v-15.17h-4.49v-5.13h4.87l.6-7.63,5.36-.49v8.12h5.82v5.13h-5.82v14.3c0,1.84.33,3.09.99,3.76.66.67,1.91,1,3.74,1,.51,0,1.06-.02,1.63-.06Z"/>
      <path class="cls-2" d="M200.17,109.72l5.62.58c-.73,3.67-2.13,6.39-4.21,8.15-2.08,1.76-4.6,2.64-7.54,2.64-3.99,0-7.07-1.48-9.22-4.42-2.15-2.95-3.22-6.56-3.22-10.83s1.17-8.05,3.52-10.93c2.35-2.88,5.49-4.32,9.4-4.32,6.31,0,10.06,3.37,11.27,10.09l-5.62.78c-.5-3.63-2.27-5.45-5.3-5.45-2.22,0-3.83.98-4.83,2.94-1,1.96-1.51,4.34-1.51,7.12,0,2.96.52,5.24,1.56,6.84,1.04,1.61,2.5,2.41,4.37,2.41,2.87,0,4.77-1.87,5.71-5.6Z"/>
      <path class="cls-2" d="M232.34,120.54h-6.54v-19.17c0-2.07-.43-3.53-1.3-4.37-.87-.84-1.89-1.26-3.05-1.26-1.85,0-3.41.75-4.67,2.24-1.26,1.49-1.89,3.94-1.89,7.37v15.2h-6.54v-39.59h6.54v15.43c1.62-4.22,4.47-6.32,8.54-6.32,5.95,0,8.92,3.45,8.92,10.35v20.13Z"/>
      <path class="cls-2" d="M259.81,120.54h-6.54v-18.3c0-1.93-.44-3.39-1.32-4.36-.88-.98-1.94-1.46-3.18-1.46-1.7,0-3.19.75-4.47,2.26-1.28,1.51-1.92,3.78-1.92,6.81v15.05h-6.54v-29.29h5.97v6.79c2.08-4.93,5-7.4,8.77-7.4,2.54,0,4.71.81,6.52,2.44,1.81,1.63,2.71,4.47,2.71,8.56v18.91Z"/>
      <path class="cls-2" d="M288.92,105.89c0-4.48-1.13-8.16-3.38-11.02-2.25-2.86-5.45-4.29-9.58-4.29s-7.57,1.45-10.03,4.35c-2.47,2.9-3.7,6.57-3.7,10.99,0,4.66,1.22,8.35,3.67,11.08,2.45,2.73,5.68,4.09,9.69,4.09,3.35,0,6.13-.86,8.34-2.58,2.22-1.72,3.71-3.91,4.47-6.56l-5.91-.81c-1.13,3.17-3.3,4.76-6.54,4.76-1.66,0-3.05-.44-4.16-1.33-1.11-.89-1.85-1.93-2.22-3.13-.37-1.2-.56-2.79-.56-4.79h19.87l.03-.75ZM269.03,102.38c.21-2.28.92-4.05,2.12-5.29,1.2-1.25,2.7-1.87,4.5-1.87s3.34.67,4.57,2c1.23,1.33,1.86,3.05,1.88,5.16h-13.07Z"/>
      <g>
        <path class="cls-2" d="M100.07,120.54h-6.54v-26.41h6.54v26.41Z"/>
        <path class="cls-2" d="M100.21,88c0,1.91-1.53,3.45-3.41,3.45s-3.41-1.55-3.41-3.45,1.53-3.45,3.41-3.45,3.41,1.55,3.41,3.45Z"/>
      </g>
      <path class="cls-2" d="M291.43,90.58c1.9,0,3.41,1.52,3.41,3.42s-1.51,3.44-3.42,3.44-3.44-1.5-3.44-3.44,1.54-3.42,3.44-3.42h.01ZM291.42,91.11c-1.59,0-2.89,1.29-2.89,2.89s1.3,2.91,2.9,2.91c1.61.01,2.89-1.28,2.89-2.89s-1.29-2.91-2.89-2.91h-.02ZM290.78,95.99h-.61v-3.82c.32-.05.62-.09,1.08-.09.58,0,.96.12,1.19.29.23.17.35.43.35.79,0,.5-.34.8-.75.93v.03c.33.06.56.36.64.93.09.59.18.82.24.94h-.64c-.09-.12-.18-.47-.26-.97-.09-.49-.34-.67-.82-.67h-.43v1.64ZM290.78,93.88h.44c.5,0,.93-.18.93-.65,0-.34-.24-.67-.93-.67-.2,0-.33.01-.44.03v1.29Z"/>
    </g>
    <path class="cls-2" d="M179.66,105.89c0-4.48-1.13-8.16-3.38-11.02-2.25-2.86-5.45-4.29-9.57-4.29s-7.57,1.45-10.04,4.35c-2.47,2.9-3.7,6.57-3.7,10.99,0,4.66,1.22,8.35,3.67,11.08,2.45,2.73,5.68,4.09,9.69,4.09,3.34,0,6.12-.86,8.34-2.58,2.22-1.72,3.71-3.91,4.47-6.56l-5.91-.81c-1.13,3.17-3.31,4.76-6.54,4.76-1.66,0-3.05-.44-4.16-1.33-1.11-.89-1.85-1.93-2.22-3.13-.37-1.2-.56-2.79-.56-4.79h19.87l.03-.75ZM159.76,102.38c.21-2.28.92-4.05,2.12-5.29,1.2-1.25,2.7-1.87,4.5-1.87s3.34.67,4.57,2c1.23,1.33,1.86,3.05,1.88,5.16h-13.07Z"/>
  </g>
  <g>
    <polygon points="318.9 131.93 317.42 131.93 329.74 71.25 331.23 71.25 318.9 131.93"/>
    <g class="cls-1">
      <rect class="cls-2" x="315.99" y="71.29" width=".44" height="60.59"/>
    </g>
  </g>
  <g>
    <path class="cls-2" d="M455.53,105.22c.45-.73.67-1.68.67-2.85s-.24-2.16-.72-2.79c-.48-.64-1.11-.95-1.94-.95-.45,0-.88.05-1.29.16-.39.1-.81.27-1.26.51v6.23c.24.22.57.4,1,.55.44.15.96.23,1.55.23.89,0,1.54-.36,1.99-1.08M464.39,101.25h5.03c-.04-.74-.23-1.38-.58-1.91-.35-.54-.95-.82-1.85-.82-.86,0-1.48.29-1.91.86-.42.56-.65,1.18-.69,1.88M472.86,97.43v.87h-.14v-.72l-.22.72h-.14l-.22-.73v.73h-.14v-.87h.21l.21.69.21-.69h.21ZM471.92,97.57h-.29v.73h-.14v-.73h-.29v-.14h.72v.14ZM471.14,101.89c0,.16,0,.32,0,.48v.1h-6.76c.01,1.05.27,1.96.75,2.71.5.78,1.15,1.15,2.01,1.15.63,0,1.17-.13,1.63-.39.46-.26.9-.65,1.29-1.17l.06-.08,1.15.92.08.06-.06.08c-.45.59-1,1.08-1.64,1.45-.65.38-1.5.56-2.53.56-1.35,0-2.44-.48-3.26-1.44-.82-.96-1.23-2.31-1.23-4.03,0-1.5.37-2.74,1.11-3.7.75-.96,1.85-1.44,3.28-1.44,1.21,0,2.18.33,2.89,1.01.71.67,1.11,1.61,1.2,2.8.03.3.04.61.04.92M460.9,107.78h-1.68v-13.01h1.68v13.01ZM457.96,102.41c0,1.51-.38,2.78-1.15,3.81-.77,1.03-1.81,1.55-3.08,1.55-.71,0-1.29-.08-1.76-.24-.38-.13-.7-.28-.96-.46v4.76h-1.68v-12.93c-.01-.42-.04-.91-.08-1.48v-.11s1.6,0,1.6,0v.08c.05.21.08.41.11.59.6-.29,1.11-.5,1.54-.63.46-.14.93-.21,1.4-.21,1.3,0,2.32.48,3.03,1.43.71.95,1.05,2.23,1.05,3.82M447.32,107.6h-1.68v-7.12c0-.33-.04-.62-.13-.86-.09-.24-.21-.44-.36-.6-.15-.16-.33-.27-.53-.35-.21-.08-.43-.11-.66-.11-.86,0-1.7.21-2.53.64.07.36.11.74.11,1.16v7.23h-1.68v-7.1c0-.68-.15-1.17-.44-1.47-.28-.3-.7-.46-1.26-.46-.46,0-.92.07-1.37.21-.43.14-.84.3-1.22.49v8.33h-1.68v-9.01c0-.43-.03-.81-.07-1.16v-.11s1.56,0,1.56,0l.02.08c.05.18.08.39.1.63.15-.08.32-.16.5-.25.24-.11.49-.22.76-.3.27-.09.55-.16.85-.22.3-.06.6-.09.91-.09.52,0,.98.08,1.39.25.38.16.72.42,1,.78,1.23-.68,2.4-1.03,3.52-1.03.48,0,.91.08,1.28.25.36.16.67.39.91.68s.41.63.53,1.02c.11.39.17.8.17,1.24v7.26ZM431.94,95.54c0,.71-.57,1.28-1.28,1.28s-1.28-.57-1.28-1.28.57-1.28,1.28-1.28,1.28.57,1.28,1.28M422.19,99.8c0,.41.17.71.53.96.37.25.82.45,1.34.61.28.09.56.18.83.27.27.09.55.18.83.27.89.32,1.54.7,1.95,1.15.4.45.61,1.04.61,1.76,0,.9-.38,1.63-1.12,2.16-.73.53-1.64.79-2.71.79h0c-.83,0-1.57-.11-2.21-.32-.65-.22-1.28-.64-1.88-1.25l-.07-.07,1.05-1.14.07-.08.08.08c.42.45.85.8,1.28,1.05.43.24.97.37,1.64.37s1.21-.14,1.63-.42c.42-.28.61-.63.61-1.11,0-.33-.1-.6-.31-.83-.2-.23-.64-.48-1.31-.71-.25-.09-.76-.26-1.5-.51-.72-.19-1.39-.51-2.01-.97-.64-.46-.97-1.14-.97-1.99,0-.81.35-1.49,1.04-1.98.69-.5,1.57-.74,2.65-.74.38,0,.73.02,1.05.06.33.04.63.11.92.21.29.1.56.22.82.37.26.15.51.35.75.57l.07.07-.98,1.17-.08-.07c-.42-.36-.82-.62-1.21-.79-.39-.16-.83-.24-1.34-.24-.62,0-1.13.12-1.52.34-.39.23-.57.53-.57.95M429.95,98.05c.23.05.46.09.71.09.34,0,.66-.07.97-.17v9.63h-1.68v-9.55ZM474.83,102.09c0-15.48-12.55-28.04-28.04-28.04s-28.04,12.55-28.04,28.04,12.55,28.04,28.04,28.04,28.04-12.55,28.04-28.04"/>
    <path class="cls-2" d="M369.26,102.37c0,1.17-.23,2.12-.68,2.85-.45.72-1.09,1.08-1.99,1.08-.59,0-1.11-.08-1.55-.23-.43-.15-.76-.33-1-.55v-6.23c.45-.24.87-.41,1.26-.51.41-.1.84-.16,1.29-.16.83,0,1.47.31,1.94.95.47.64.72,1.57.72,2.79M369.96,98.59c-.7-.95-1.73-1.44-3.03-1.43-.47,0-.94.07-1.4.21-.43.13-.94.34-1.54.63-.03-.18-.06-.38-.09-.59v-.08h-1.62v.11c.05.57.08,1.06.09,1.48v12.93h1.68v-4.77c.26.18.58.33.96.46.47.16,1.06.24,1.77.24,1.27,0,2.31-.52,3.08-1.55.77-1.02,1.15-2.3,1.15-3.81,0-1.6-.35-2.87-1.05-3.82"/>
    <path class="cls-2" d="M378.42,97.22c-.05-.01-.12-.03-.21-.04-.09-.01-.19-.02-.27-.02-.71,0-1.4.17-2.06.52-.58.3-1.09.7-1.54,1.19,0-.32-.01-.58-.03-.8-.02-.28-.06-.5-.1-.67l-.02-.08h-1.59l.02.12c.02.1.04.57.06,1.37v8.79h1.68v-7.14c.15-.33.48-.68,1.01-1.04.53-.36,1.19-.54,2-.54.28,0,.51.02.68.07l.1.03.36-1.74-.09-.03Z"/>
    <path class="cls-2" d="M381.94,106.04c-.38-.23-.77-.62-1.16-1.19-.38-.55-.58-1.33-.58-2.35,0-1.19.27-2.15.81-2.87.53-.72,1.28-1.08,2.27-1.08.99,0,1.72.37,2.23,1.13.51.76.77,1.61.77,2.54,0,1.08-.19,1.92-.56,2.53-.38.63-.76,1.05-1.12,1.28-.37.23-.8.35-1.3.35s-.97-.12-1.35-.34M386.79,98.7c-.82-1.03-1.99-1.54-3.48-1.54-1.46,0-2.65.49-3.53,1.48-.88.98-1.33,2.22-1.32,3.68,0,1.63.41,2.95,1.24,3.95.83,1,2.06,1.5,3.66,1.5h0c1.38,0,2.52-.52,3.37-1.55.86-1.03,1.28-2.27,1.28-3.71,0-1.51-.41-2.79-1.22-3.81"/>
    <path class="cls-2" d="M393.96,106.06l-.12.03c-.1.03-.32.08-.64.14-.33.06-.59.1-.8.1-.37,0-.62-.15-.8-.47-.18-.33-.27-.78-.27-1.34v-5.72h2.28l.18-1.48h-2.47v-2.55h-1.68v10.14c0,1.07.22,1.83.69,2.25.46.42,1.11.62,1.91.61.24,0,.56-.03.96-.08.4-.05.66-.09.79-.12l.09-.02-.13-1.49Z"/>
    <path class="cls-2" d="M396.28,101.25c.05-.7.28-1.32.69-1.88.43-.57,1.05-.86,1.91-.86.9,0,1.5.28,1.85.82.34.54.54,1.17.58,1.92h-5.02ZM403.15,105.62l-1.14-.92-.06.08c-.4.52-.83.91-1.29,1.17-.46.26-1,.39-1.63.39-.85,0-1.51-.38-2.01-1.15-.48-.76-.73-1.66-.75-2.71h6.76v-.1c0-.16.01-.32.01-.48,0-.32-.01-.62-.04-.92-.09-1.19-.49-2.13-1.2-2.8-.71-.67-1.68-1.01-2.89-1.01-1.43,0-2.54.48-3.28,1.44-.75.96-1.11,2.2-1.11,3.7,0,1.72.4,3.07,1.23,4.03.82.96,1.92,1.44,3.26,1.44,1.03,0,1.88-.18,2.53-.56.64-.37,1.19-.86,1.64-1.45l.06-.08-.08-.06Z"/>
    <path class="cls-2" d="M416.3,98.02c-.58-.58-1.36-.86-2.34-.86-.63,0-1.26.11-1.88.32-.56.19-1.04.41-1.45.66-.02-.26-.06-.51-.1-.74l-.02-.08h-1.63v.11c.07.46.1.89.1,1.29v8.89h1.68v-8.15c.41-.25.88-.47,1.42-.63.56-.17,1.12-.26,1.69-.26.56,0,.97.19,1.27.56.3.38.45.86.45,1.45v7.03h1.68v-7.15c0-1.04-.28-1.86-.86-2.44"/>
    <path class="cls-2" d="M407.14,95.54c0,.71-.57,1.28-1.28,1.28s-1.28-.57-1.28-1.28.57-1.28,1.28-1.28,1.28.57,1.28,1.28"/>
    <path class="cls-2" d="M405.86,98.14c-.29,0-.57-.05-.84-.13v9.59h1.68v-9.59c-.27.08-.55.13-.84.13"/>
  </g>
</svg>